<?xml version="1.0" standalone="no"?>
<!DOCTYPE svg PUBLIC "-//W3C//DTD SVG 20010904//EN"
 "http://www.w3.org/TR/2001/REC-SVG-20010904/DTD/svg10.dtd">
<svg version="1.0" xmlns="http://www.w3.org/2000/svg"
 width="300.000000pt" height="300.000000pt" viewBox="0 0 300.000000 300.000000"
 preserveAspectRatio="xMidYMid meet">
<metadata>
Created by potrace 1.11, written by Peter Selinger 2001-2013
</metadata>
<g transform="translate(0.000000,300.000000) scale(0.100000,-0.100000)"
fill="#000000" stroke="none">
<path d="M1350 2993 c-385 -56 -648 -179 -890 -416 -104 -102 -123 -123 -192
-223 -186 -267 -271 -553 -264 -884 7 -325 105 -604 303 -869 102 -136 296
-310 426 -381 154 -84 254 -126 383 -159 158 -41 248 -50 419 -46 151 4 164 5
289 31 500 104 931 491 1096 983 57 169 73 269 74 456 1 94 -2 190 -6 215 -61
409 -264 753 -588 998 -186 141 -394 232 -635 278 -74 15 -355 26 -415 17z
m385 -397 c428 -101 744 -407 852 -824 31 -124 39 -335 16 -457 -88 -472 -455
-834 -923 -910 -477 -76 -936 153 -1173 586 -36 66 -90 214 -102 279 -19 101
-22 141 -23 234 -2 550 408 1024 956 1105 87 13 317 5 397 -13z"/>
<path d="M1665 2140 c-85 -170 -157 -310 -159 -310 -5 0 -54 79 -103 165 -38
68 -93 162 -183 314 -67 113 -78 126 -100 123 -22 -3 -50 -26 -50 -42 0 -3 66
-118 146 -255 81 -138 155 -266 166 -285 66 -116 91 -150 114 -156 13 -3 30
-4 37 -1 7 3 94 165 193 362 l179 356 -24 20 c-50 41 -51 40 -216 -291z"/>
<path d="M865 2282 c-43 -31 -45 -27 159 -334 l196 -293 -360 -3 -360 -2 -6
-27 c-15 -59 -24 -58 411 -61 398 -2 399 -2 422 20 13 12 23 26 23 32 0 23
-444 676 -459 676 -9 0 -20 -4 -26 -8z"/>
<path d="M2000 2158 c-262 -388 -360 -537 -360 -545 0 -5 10 -19 23 -31 23
-22 24 -22 422 -20 436 3 426 2 411 61 l-6 27 -361 0 -360 0 195 290 c131 193
194 295 189 305 -5 15 -42 35 -62 35 -4 0 -45 -55 -91 -122z"/>
<path d="M502 1438 c-14 -14 -15 -47 -3 -66 7 -11 79 -14 364 -14 264 0 355
-3 350 -12 -4 -6 -91 -138 -195 -293 -103 -156 -188 -285 -188 -287 0 -12 45
-46 60 -46 11 0 96 119 238 333 122 183 222 337 222 343 0 6 -10 20 -23 32
-23 22 -27 22 -418 22 -294 0 -398 -3 -407 -12z"/>
<path d="M1660 1425 l-24 -25 20 -34 c10 -18 111 -169 223 -334 129 -191 210
-302 221 -302 15 0 60 34 60 45 0 3 -88 135 -196 295 l-195 290 353 0 c372 0
378 1 378 45 0 45 -3 45 -420 45 l-397 0 -23 -25z"/>
<path d="M1471 1306 c-6 -7 -98 -162 -206 -346 -121 -207 -193 -340 -190 -350
8 -25 49 -41 69 -27 8 7 90 140 181 297 92 157 170 289 175 294 5 5 77 -128
164 -303 138 -275 159 -311 179 -311 13 0 32 9 43 21 18 20 16 25 -162 377
-179 356 -180 357 -212 358 -18 1 -36 -4 -41 -10z"/>
</g>
</svg>
